<svg version="1.1" id="Layer_1" xmlns="http://www.w3.org/2000/svg" xmlns:xlink="http://www.w3.org/1999/xlink" x="0px" y="0px"
	 width="100%" viewBox="0 0 4675 4675" enable-background="new 0 0 4675 4675" xml:space="preserve">
<path fill="#FFFFFF" opacity="1.000000" stroke="none" 
	d="
M3216.000000,4680.000000 
	C2144.000000,4680.000000 1074.000000,4680.000000 4.000000,4680.000000 
	C4.000000,3121.333252 4.000000,1562.666626 4.000000,4.000001 
	C1562.666626,4.000000 3121.333252,4.000000 4680.000000,4.000000 
	C4680.000000,1562.666626 4680.000000,3121.333252 4680.000000,4680.000000 
	C4192.666504,4680.000000 3705.333252,4680.000000 3216.000000,4680.000000 
M1856.648071,1184.276855 
	C1829.343018,1183.600952 1802.158203,1187.122437 1774.943115,1187.299194 
	C1650.286255,1188.109131 1525.623657,1188.052490 1400.963135,1188.309570 
	C1395.630249,1188.320557 1390.235474,1187.845459 1384.975952,1188.479126 
	C1369.203735,1190.379150 1355.348755,1195.424438 1347.283936,1210.901001 
	C1343.640869,1217.892334 1343.773926,1225.000732 1343.772461,1232.265747 
	C1343.765015,1269.597290 1343.932983,1306.928711 1343.893188,1344.260254 
	C1343.887085,1350.062012 1343.125000,1355.863159 1342.639526,1362.689575 
	C1335.626465,1363.171143 1329.800171,1363.879150 1323.969360,1363.918579 
	C1297.971436,1364.094360 1271.972290,1364.080933 1245.973511,1364.132080 
	C1200.642456,1364.221069 1155.310913,1364.244385 1109.980591,1364.473633 
	C1104.237305,1364.502686 1097.846680,1362.785278 1091.947998,1369.679443 
	C1091.947998,1373.546631 1091.937866,1378.827393 1091.949829,1384.108154 
	C1091.988037,1400.774048 1092.043335,1417.439819 1092.076172,1434.105713 
	C1092.183960,1488.769653 1092.192017,1543.434204 1092.502930,1598.097046 
	C1092.542725,1605.108887 1090.147095,1612.840576 1097.254150,1620.286499 
	C1103.452515,1620.286499 1110.725342,1620.299316 1117.998169,1620.284424 
	C1187.328125,1620.143066 1256.665039,1620.562500 1325.985962,1619.693359 
	C1395.887329,1618.817139 1465.760498,1619.876099 1535.715698,1617.228882 
	C1622.260742,1613.953613 1709.017090,1616.631104 1795.673462,1615.817139 
	C1882.908081,1614.997803 1970.124146,1616.307617 2057.395264,1613.108398 
	C2141.284912,1610.033081 2225.371338,1612.764160 2309.357666,1611.778564 
	C2393.257324,1610.794189 2477.132324,1612.462158 2561.084473,1609.195679 
	C2647.622559,1605.828125 2734.386230,1608.611206 2821.042969,1607.822876 
	C2908.277832,1607.029297 2995.572998,1610.427124 3082.741699,1604.477173 
	C3232.734375,1604.169312 3382.726807,1603.696411 3532.719482,1603.744751 
	C3553.428955,1603.751343 3573.770996,1600.436401 3594.348145,1599.657959 
	C3595.484619,1599.615112 3596.578857,1598.452148 3598.862549,1597.136719 
	C3599.178711,1594.765015 3599.882568,1591.584351 3599.971191,1588.386841 
	C3600.155762,1581.725830 3600.020264,1575.055786 3600.007080,1568.389526 
	C3599.876953,1502.392700 3599.810059,1436.395752 3599.517578,1370.399536 
	C3599.486084,1363.310547 3601.536865,1355.689941 3595.827637,1348.432251 
	C3591.087646,1348.155029 3585.843262,1347.611816 3580.596191,1347.585083 
	C3563.931152,1347.500366 3547.264648,1347.609497 3530.598877,1347.641357 
	C3481.268066,1347.735718 3431.937012,1347.889160 3382.606201,1347.841553 
	C3376.866699,1347.836060 3370.471436,1349.677490 3364.413086,1342.673462 
	C3364.413086,1336.278687 3364.425537,1328.337891 3364.410889,1320.397217 
	C3364.346191,1285.065674 3364.564941,1249.730225 3364.101318,1214.403809 
	C3363.791016,1190.767578 3348.761230,1176.279785 3325.033936,1175.582520 
	C3320.371094,1175.445312 3315.701660,1175.536255 3311.035156,1175.545776 
	C3159.042725,1175.855591 3007.050049,1176.127197 2855.057861,1176.575317 
	C2845.140625,1176.604492 2835.235596,1178.362183 2825.308838,1178.575073 
	C2820.860352,1178.670410 2816.372803,1176.934937 2811.869873,1172.274414 
	C2811.814453,1156.950073 2811.787842,1141.625732 2811.697510,1126.301514 
	C2811.536621,1098.985718 2811.649170,1071.663574 2811.083252,1044.355835 
	C2810.148438,999.255493 2781.204346,967.262634 2737.033447,962.077698 
	C2731.764893,961.459351 2726.397217,961.440918 2721.080566,961.514709 
	C2688.443604,961.967712 2655.809814,962.748108 2623.171875,963.014343 
	C2449.295166,964.432800 2275.418213,965.758606 2101.540771,967.055359 
	C2047.575684,967.457825 1993.605957,967.391479 1939.644897,968.061768 
	C1901.615234,968.534058 1871.449829,992.110962 1862.208008,1028.355225 
	C1860.105103,1036.602295 1859.802124,1045.477295 1859.802490,1054.063232 
	C1859.804810,1097.369141 1860.181519,1140.674927 1856.648071,1184.276855 
M1377.830688,2728.157715 
	C1384.575806,2763.463379 1391.301025,2798.772705 1398.069702,2834.073975 
	C1413.364502,2913.841797 1428.713745,2993.599121 1443.978882,3073.372559 
	C1459.244141,3153.145752 1474.389893,3232.941650 1489.668701,3312.712158 
	C1506.450195,3400.327393 1523.311157,3487.927002 1540.165649,3575.528320 
	C1545.322876,3602.332520 1549.946533,3629.259277 1555.934082,3655.878418 
	C1564.046143,3691.942383 1587.235107,3713.746338 1622.977417,3721.968262 
	C1630.645996,3723.732422 1638.850098,3723.695312 1646.800049,3723.626465 
	C1724.766113,3722.949707 1802.729370,3721.961670 1880.695557,3721.310303 
	C2050.635742,3719.891113 2220.576904,3718.610840 2390.517822,3717.285645 
	C2563.125488,3715.939697 2735.732666,3714.586426 2908.340576,3713.282959 
	C2962.992188,3712.870117 3017.644775,3712.420898 3072.297119,3712.366943 
	C3093.925537,3712.345459 3112.894531,3705.687012 3129.339111,3691.913818 
	C3147.085205,3677.049561 3155.511963,3657.227051 3159.492676,3634.876465 
	C3173.267578,3557.534180 3187.210449,3480.221436 3201.267090,3402.929932 
	C3215.323730,3325.638184 3229.677002,3248.400879 3243.748535,3171.111816 
	C3259.012695,3087.273193 3273.987549,3003.381836 3289.296387,2919.551270 
	C3305.800293,2829.174561 3322.679932,2738.866455 3339.148193,2648.483398 
	C3355.975342,2556.130615 3372.385254,2463.702148 3389.194092,2371.346191 
	C3404.453125,2287.506592 3420.069824,2203.732666 3435.407227,2119.907471 
	C3453.979248,2018.404907 3472.540039,1916.899780 3490.806396,1815.341797 
	C3493.744873,1799.004150 3496.929199,1782.379639 3496.874756,1765.898071 
	C3496.725098,1720.703613 3460.830811,1685.148071 3415.684082,1683.724121 
	C3408.359863,1683.493042 3401.021240,1683.643677 3393.690186,1683.705444 
	C3279.733887,1684.665649 3165.778076,1685.687866 3051.821289,1686.600342 
	C2879.877930,1687.977051 2707.934326,1689.275879 2535.990723,1690.614990 
	C2365.382324,1691.943726 2194.773682,1693.296875 2024.165283,1694.610962 
	C1818.234253,1696.197266 1612.303101,1697.767822 1406.371704,1699.310913 
	C1365.049438,1699.620605 1323.725464,1699.686768 1282.403564,1700.026489 
	C1236.063477,1700.407593 1196.934692,1740.671265 1199.293335,1786.938721 
	C1199.698486,1794.887329 1200.639404,1802.871338 1202.111938,1810.692261 
	C1210.611206,1855.834961 1219.344482,1900.933838 1227.998657,1946.047485 
	C1242.171265,2019.926880 1256.334106,2093.808105 1270.520508,2167.685059 
	C1282.824341,2231.759033 1295.180054,2295.823486 1307.467773,2359.900879 
	C1321.886108,2435.089111 1336.292725,2510.280029 1350.633179,2585.483398 
	C1359.487915,2631.916992 1368.209961,2678.375977 1377.830688,2728.157715 
z"/>
<path fill="#616E7E" opacity="1.000000" stroke="none" 
	d="
M1377.411133,2726.490723 
	C1368.209961,2678.375977 1359.487915,2631.916992 1350.633179,2585.483398 
	C1336.292725,2510.280029 1321.886108,2435.089111 1307.467773,2359.900879 
	C1295.180054,2295.823486 1282.824341,2231.759033 1270.520508,2167.685059 
	C1256.334106,2093.808105 1242.171265,2019.926880 1227.998657,1946.047485 
	C1219.344482,1900.933838 1210.611206,1855.834961 1202.111938,1810.692261 
	C1200.639404,1802.871338 1199.698486,1794.887329 1199.293335,1786.938721 
	C1196.934692,1740.671265 1236.063477,1700.407593 1282.403564,1700.026489 
	C1323.725464,1699.686768 1365.049438,1699.620605 1406.371704,1699.310913 
	C1612.303101,1697.767822 1818.234253,1696.197266 2024.165283,1694.610962 
	C2194.773682,1693.296875 2365.382324,1691.943726 2535.990723,1690.614990 
	C2707.934326,1689.275879 2879.877930,1687.977051 3051.821289,1686.600342 
	C3165.778076,1685.687866 3279.733887,1684.665649 3393.690186,1683.705444 
	C3401.021240,1683.643677 3408.359863,1683.493042 3415.684082,1683.724121 
	C3460.830811,1685.148071 3496.725098,1720.703613 3496.874756,1765.898071 
	C3496.929199,1782.379639 3493.744873,1799.004150 3490.806396,1815.341797 
	C3472.540039,1916.899780 3453.979248,2018.404907 3435.407227,2119.907471 
	C3420.069824,2203.732666 3404.453125,2287.506592 3389.194092,2371.346191 
	C3372.385254,2463.702148 3355.975342,2556.130615 3339.148193,2648.483398 
	C3322.679932,2738.866455 3305.800293,2829.174561 3289.296387,2919.551270 
	C3273.987549,3003.381836 3259.012695,3087.273193 3243.748535,3171.111816 
	C3229.677002,3248.400879 3215.323730,3325.638184 3201.267090,3402.929932 
	C3187.210449,3480.221436 3173.267578,3557.534180 3159.492676,3634.876465 
	C3155.511963,3657.227051 3147.085205,3677.049561 3129.339111,3691.913818 
	C3112.894531,3705.687012 3093.925537,3712.345459 3072.297119,3712.366943 
	C3017.644775,3712.420898 2962.992188,3712.870117 2908.340576,3713.282959 
	C2735.732666,3714.586426 2563.125488,3715.939697 2390.517822,3717.285645 
	C2220.576904,3718.610840 2050.635742,3719.891113 1880.695557,3721.310303 
	C1802.729370,3721.961670 1724.766113,3722.949707 1646.800049,3723.626465 
	C1638.850098,3723.695312 1630.645996,3723.732422 1622.977417,3721.968262 
	C1587.235107,3713.746338 1564.046143,3691.942383 1555.934082,3655.878418 
	C1549.946533,3629.259277 1545.322876,3602.332520 1540.165649,3575.528320 
	C1523.311157,3487.927002 1506.450195,3400.327393 1489.668701,3312.712158 
	C1474.389893,3232.941650 1459.244141,3153.145752 1443.978882,3073.372559 
	C1428.713745,2993.599121 1413.364502,2913.841797 1398.069702,2834.073975 
	C1391.301025,2798.772705 1384.575806,2763.463379 1377.411133,2726.490723 
M2444.449219,3537.354736 
	C2445.440430,3528.803467 2447.230957,3520.257324 2447.282471,3511.700439 
	C2447.491455,3477.099854 2445.879150,3442.516113 2445.182373,3407.944824 
	C2443.490234,3324.004639 2444.642090,3240.011963 2443.784180,3156.049072 
	C2442.919678,3071.483643 2444.082764,2986.931641 2441.289551,2902.335693 
	C2438.453857,2816.452393 2440.613525,2730.414307 2439.793945,2644.451660 
	C2438.974609,2558.553223 2439.649414,2472.667725 2437.312500,2386.743408 
	C2434.487305,2282.850586 2436.113525,2178.836914 2435.795410,2074.875488 
	C2435.695312,2042.220947 2436.091553,2009.552490 2435.269531,1976.915527 
	C2434.117188,1931.178467 2407.989258,1899.727661 2369.319580,1890.246460 
	C2333.360352,1881.429810 2294.578125,1898.705933 2277.897949,1927.856201 
	C2268.760742,1943.824585 2264.147705,1960.812500 2264.402100,1979.306885 
	C2265.079346,2028.556641 2265.514160,2077.794434 2266.771240,2127.050293 
	C2268.913330,2210.971191 2267.357666,2294.979004 2268.217773,2378.941895 
	C2269.084229,2463.507568 2268.763672,2548.061768 2270.679688,2632.650635 
	C2274.571289,2804.465088 2270.779785,2976.368652 2274.815918,3148.241699 
	C2277.662598,3269.472168 2276.174805,3390.806641 2276.368896,3512.095215 
	C2276.399658,3531.296631 2281.342041,3548.684082 2290.655029,3565.368896 
	C2304.504883,3590.181885 2347.354248,3611.436035 2381.125244,3601.604736 
	C2413.073486,3592.304199 2434.491455,3572.793457 2444.449219,3537.354736 
M3085.722412,1894.739990 
	C3077.186523,1893.722778 3068.665283,1891.998291 3060.111816,1891.818848 
	C3032.818848,1891.245361 3011.163574,1903.067627 2994.536621,1924.079224 
	C2983.542236,1937.972656 2978.395264,1954.411987 2976.140137,1971.914917 
	C2973.083496,1995.638428 2969.686523,2019.318848 2966.320801,2043.001587 
	C2962.955811,2066.679443 2959.379639,2090.327393 2956.026123,2114.007080 
	C2952.857910,2136.377930 2949.960938,2158.787598 2946.761475,2181.153809 
	C2941.869873,2215.349609 2936.768799,2249.515625 2931.858154,2283.708740 
	C2928.740967,2305.415771 2925.883545,2327.160156 2922.772705,2348.868164 
	C2919.191895,2373.855469 2915.465576,2398.821777 2911.793213,2423.795898 
	C2908.410400,2446.800537 2904.983154,2469.798584 2901.635010,2492.808105 
	C2898.381836,2515.164307 2895.196777,2537.530029 2891.996094,2559.893799 
	C2888.795166,2582.257812 2885.638916,2604.628418 2882.415039,2626.989258 
	C2879.002197,2650.660400 2875.463135,2674.313232 2872.108398,2697.992432 
	C2868.939697,2720.361816 2866.024414,2742.767578 2862.841553,2765.135010 
	C2859.284912,2790.125732 2855.499023,2815.083740 2851.912109,2840.070068 
	C2848.796143,2861.777100 2845.875244,2883.512207 2842.764893,2905.219971 
	C2839.184570,2930.207764 2835.445801,2955.172607 2831.860352,2980.159668 
	C2828.745361,3001.866943 2825.796387,3023.598145 2822.686035,3045.306152 
	C2819.105469,3070.294189 2815.389893,3095.262695 2811.805176,3120.250000 
	C2808.691162,3141.956299 2805.717773,3163.682861 2802.610596,3185.390137 
	C2799.033447,3210.379150 2795.413818,3235.362305 2791.744629,3260.337891 
	C2788.364990,3283.342529 2784.834473,3306.324707 2781.479980,3329.332764 
	C2776.974609,3360.233887 2772.555420,3391.147949 2768.134521,3422.061523 
	C2764.841797,3445.083984 2762.155518,3468.208984 2758.222656,3491.120850 
	C2751.199707,3532.032715 2774.416992,3572.533203 2813.278809,3586.519775 
	C2855.546387,3601.732178 2898.590820,3579.695068 2915.182617,3549.093262 
	C2922.926025,3534.812256 2925.889893,3519.154785 2927.970459,3503.231689 
	C2930.983154,3480.170898 2934.154541,3457.129639 2937.471680,3434.110840 
	C2940.787842,3411.098877 2944.537598,3388.149170 2947.789795,3365.128418 
	C2952.344727,3332.887207 2956.447266,3300.582275 2961.052734,3268.348633 
	C2965.844482,3234.809570 2971.074707,3201.333496 2975.977783,3167.810059 
	C2979.151123,3146.111572 2982.024414,3124.369873 2985.134766,3102.662109 
	C2988.714844,3077.674561 2992.454590,3052.709961 2996.037109,3027.722900 
	C2999.149414,3006.015625 3002.088135,2984.282959 3005.198242,2962.575439 
	C3008.778076,2937.589355 3012.502441,2912.624023 3016.088623,2887.638672 
	C3019.204346,2865.931396 3022.174561,2844.203613 3025.284180,2822.495605 
	C3028.863037,2797.508057 3032.555908,2772.537109 3036.139404,2747.550293 
	C3039.252686,2725.843262 3042.190430,2704.110596 3045.371582,2682.413330 
	C3050.093018,2650.206543 3055.128906,2618.045166 3059.719238,2585.819824 
	C3064.310547,2553.584717 3068.352539,2521.270996 3072.940186,2489.035156 
	C3077.807617,2454.834473 3083.070068,2420.689941 3088.089355,2386.510498 
	C3091.275635,2364.815918 3094.284180,2343.094971 3097.462158,2321.399170 
	C3100.831787,2298.394775 3104.440674,2275.424561 3107.699463,2252.404785 
	C3110.959717,2229.374023 3113.710693,2206.270508 3117.054199,2183.252441 
	C3121.733398,2151.043701 3126.969482,2118.915039 3131.568848,2086.695312 
	C3136.264648,2053.802734 3139.702637,2020.710693 3145.227783,1987.965210 
	C3148.039795,1971.300537 3144.948975,1956.281982 3138.801270,1941.476196 
	C3129.307129,1918.610596 3111.988525,1903.858643 3085.722412,1894.739990 
M1640.457275,2541.212891 
	C1645.626709,2572.676270 1650.884644,2604.125732 1655.939575,2635.607422 
	C1660.573853,2664.468506 1664.908203,2693.377686 1669.520752,2722.242432 
	C1675.600098,2760.286133 1681.894165,2798.295410 1687.959351,2836.341553 
	C1692.457031,2864.554199 1696.593140,2892.824951 1701.149170,2921.028076 
	C1707.187012,2958.403320 1713.677612,2995.706299 1719.603149,3033.098877 
	C1725.634033,3071.155029 1731.001465,3109.316162 1737.054321,3147.368652 
	C1743.001709,3184.758545 1749.639282,3222.038330 1755.621704,3259.422852 
	C1762.864868,3304.686523 1769.684204,3350.018066 1776.786987,3395.304688 
	C1783.270630,3436.644287 1790.356445,3477.895996 1796.297852,3519.312256 
	C1801.015747,3552.199951 1817.381226,3576.396729 1846.927734,3591.220947 
	C1858.893188,3597.224365 1872.056519,3600.355713 1885.591064,3599.420166 
	C1915.709595,3597.337891 1938.662476,3582.366943 1954.598022,3557.457275 
	C1963.652710,3543.303711 1967.746826,3526.785400 1966.975830,3509.822998 
	C1966.495728,3499.261230 1964.115112,3488.774658 1962.422974,3478.281006 
	C1956.289551,3440.246582 1950.002563,3402.236572 1943.937988,3364.191162 
	C1939.441040,3335.979492 1935.310669,3307.709717 1930.816772,3279.497803 
	C1924.547607,3240.140869 1918.047607,3200.820801 1911.730469,3161.471436 
	C1907.307861,3133.922852 1903.088867,3106.342041 1898.664185,3078.793701 
	C1893.818726,3048.626221 1888.745972,3018.495361 1883.949463,2988.320312 
	C1879.464844,2960.106445 1875.325195,2931.837646 1870.829956,2903.625488 
	C1864.559082,2864.268311 1858.050415,2824.949463 1851.736328,2785.599121 
	C1847.315674,2758.048828 1843.102905,2730.465088 1838.700928,2702.911621 
	C1833.775757,2672.084229 1828.705688,2641.280273 1823.765747,2610.455078 
	C1819.245605,2582.249756 1814.861816,2554.022705 1810.333862,2525.818848 
	C1804.226807,2487.778076 1797.970703,2449.761230 1791.908936,2411.713379 
	C1787.414185,2383.502197 1783.243530,2355.239258 1778.715088,2327.033691 
	C1773.977173,2297.522949 1768.836060,2268.076904 1764.140381,2238.559326 
	C1758.295532,2201.818359 1752.852539,2165.012939 1747.006714,2128.271973 
	C1739.387817,2080.385986 1731.639526,2032.519897 1723.739990,1984.679565 
	C1721.245117,1969.570679 1718.569458,1954.284668 1709.868286,1941.255981 
	C1675.763916,1890.188599 1606.141602,1891.873779 1572.595093,1933.321655 
	C1559.535767,1949.456787 1552.946411,1968.160767 1553.012573,1988.638550 
	C1553.048706,1999.817871 1555.875977,2011.007690 1557.661987,2022.157959 
	C1563.755371,2060.200195 1570.013184,2098.216064 1576.075928,2136.263184 
	C1580.571411,2164.475342 1584.753662,2192.737305 1589.268188,2220.946533 
	C1595.461182,2259.643311 1601.899902,2298.300537 1608.112549,2336.994385 
	C1612.641235,2365.200195 1616.906006,2393.448486 1621.413086,2421.657959 
	C1627.596436,2460.357910 1633.897583,2499.039307 1640.457275,2541.212891 
z"/>
<path fill="#AAD4C8" opacity="1.000000" stroke="none" 
	d="
M2811.902832,1176.030151 
	C2816.372803,1176.934937 2820.860352,1178.670410 2825.308838,1178.575073 
	C2835.235596,1178.362183 2845.140625,1176.604492 2855.057861,1176.575317 
	C3007.050049,1176.127197 3159.042725,1175.855591 3311.035156,1175.545776 
	C3315.701660,1175.536255 3320.371094,1175.445312 3325.033936,1175.582520 
	C3348.761230,1176.279785 3363.791016,1190.767578 3364.101318,1214.403809 
	C3364.564941,1249.730225 3364.346191,1285.065674 3364.410889,1320.397217 
	C3364.425537,1328.337891 3364.413086,1336.278687 3364.413086,1342.673462 
	C3370.471436,1349.677490 3376.866699,1347.836060 3382.606201,1347.841553 
	C3431.937012,1347.889160 3481.268066,1347.735718 3530.598877,1347.641357 
	C3547.264648,1347.609497 3563.931152,1347.500366 3580.596191,1347.585083 
	C3585.843262,1347.611816 3591.087646,1348.155029 3595.827637,1348.432251 
	C3601.536865,1355.689941 3599.486084,1363.310547 3599.517578,1370.399536 
	C3599.810059,1436.395752 3599.876953,1502.392700 3600.007080,1568.389526 
	C3600.020264,1575.055786 3600.155762,1581.725830 3599.971191,1588.386841 
	C3599.882568,1591.584351 3599.178711,1594.765015 3598.862549,1597.136719 
	C3596.578857,1598.452148 3595.484619,1599.615112 3594.348145,1599.657959 
	C3573.770996,1600.436401 3553.428955,1603.751343 3532.719482,1603.744751 
	C3382.726807,1603.696411 3232.734375,1604.169312 3082.741699,1604.477173 
	C2995.572998,1610.427124 2908.277832,1607.029297 2821.042969,1607.822876 
	C2734.386230,1608.611206 2647.622559,1605.828125 2561.084473,1609.195679 
	C2477.132324,1612.462158 2393.257324,1610.794189 2309.357666,1611.778564 
	C2225.371338,1612.764160 2141.284912,1610.033081 2057.395264,1613.108398 
	C1970.124146,1616.307617 1882.908081,1614.997803 1795.673462,1615.817139 
	C1709.017090,1616.631104 1622.260742,1613.953613 1535.715698,1617.228882 
	C1465.760498,1619.876099 1395.887329,1618.817139 1325.985962,1619.693359 
	C1256.665039,1620.562500 1187.328125,1620.143066 1117.998169,1620.284424 
	C1110.725342,1620.299316 1103.452515,1620.286499 1097.254150,1620.286499 
	C1090.147095,1612.840576 1092.542725,1605.108887 1092.502930,1598.097046 
	C1092.192017,1543.434204 1092.183960,1488.769653 1092.076172,1434.105713 
	C1092.043335,1417.439819 1091.988037,1400.774048 1091.949829,1384.108154 
	C1091.937866,1378.827393 1091.947998,1373.546631 1091.947998,1369.679443 
	C1097.846680,1362.785278 1104.237305,1364.502686 1109.980591,1364.473633 
	C1155.310913,1364.244385 1200.642456,1364.221069 1245.973511,1364.132080 
	C1271.972290,1364.080933 1297.971436,1364.094360 1323.969360,1363.918579 
	C1329.800171,1363.879150 1335.626465,1363.171143 1342.639526,1362.689575 
	C1343.125000,1355.863159 1343.887085,1350.062012 1343.893188,1344.260254 
	C1343.932983,1306.928711 1343.765015,1269.597290 1343.772461,1232.265747 
	C1343.773926,1225.000732 1343.640869,1217.892334 1347.283936,1210.901001 
	C1355.348755,1195.424438 1369.203735,1190.379150 1384.975952,1188.479126 
	C1390.235474,1187.845459 1395.630249,1188.320557 1400.963135,1188.309570 
	C1525.623657,1188.052490 1650.286255,1188.109131 1774.943115,1187.299194 
	C1802.158203,1187.122437 1829.343018,1183.600952 1860.379517,1184.232910 
	C1916.283936,1184.114624 1968.457031,1184.040405 2022.456909,1183.927002 
	C2033.613770,1183.947632 2042.943848,1184.072388 2052.273682,1184.057007 
	C2113.591064,1183.955811 2174.915283,1184.339844 2236.224121,1183.558105 
	C2297.446533,1182.777588 2358.638184,1183.593384 2419.915039,1181.073608 
	C2497.101807,1177.899536 2574.508301,1180.060547 2653.703613,1179.816650 
	C2700.589355,1179.565308 2745.591553,1179.406494 2790.593750,1179.280151 
	C2797.869385,1179.259766 2805.203613,1179.765869 2811.902832,1176.030151 
z"/>
<path fill="#626F7F" opacity="1.000000" stroke="none" 
	d="
M2020.630005,1183.966309 
	C1968.457031,1184.040405 1916.283936,1184.114624 1862.268921,1184.084839 
	C1860.181519,1140.674927 1859.804810,1097.369141 1859.802490,1054.063232 
	C1859.802124,1045.477295 1860.105103,1036.602295 1862.208008,1028.355225 
	C1871.449829,992.110962 1901.615234,968.534058 1939.644897,968.061768 
	C1993.605957,967.391479 2047.575684,967.457825 2101.540771,967.055359 
	C2275.418213,965.758606 2449.295166,964.432800 2623.171875,963.014343 
	C2655.809814,962.748108 2688.443604,961.967712 2721.080566,961.514709 
	C2726.397217,961.440918 2731.764893,961.459351 2737.033447,962.077698 
	C2781.204346,967.262634 2810.148438,999.255493 2811.083252,1044.355835 
	C2811.649170,1071.663574 2811.536621,1098.985718 2811.697510,1126.301514 
	C2811.787842,1141.625732 2811.814453,1156.950073 2811.886230,1174.152344 
	C2805.203613,1179.765869 2797.869385,1179.259766 2790.593750,1179.280151 
	C2745.591553,1179.406494 2700.589355,1179.565308 2653.604492,1177.965332 
	C2650.372314,1159.173828 2653.267090,1141.872559 2648.996826,1123.557129 
	C2639.226318,1123.557129 2629.996094,1123.492920 2620.767090,1123.566895 
	C2483.632568,1124.666870 2346.498291,1125.817993 2209.363281,1126.882812 
	C2152.776123,1127.322388 2096.187012,1127.552856 2039.599487,1127.977417 
	C2033.818359,1128.020752 2028.042114,1128.746704 2021.187378,1129.232178 
	C2019.722046,1148.273315 2021.067017,1166.149048 2020.630005,1183.966309 
z"/>
<path fill="#A9D3C7" opacity="1.000000" stroke="none" 
	d="
M2444.176270,3538.981934 
	C2434.491455,3572.793457 2413.073486,3592.304199 2381.125244,3601.604736 
	C2347.354248,3611.436035 2304.504883,3590.181885 2290.655029,3565.368896 
	C2281.342041,3548.684082 2276.399658,3531.296631 2276.368896,3512.095215 
	C2276.174805,3390.806641 2277.662598,3269.472168 2274.815918,3148.241699 
	C2270.779785,2976.368652 2274.571289,2804.465088 2270.679688,2632.650635 
	C2268.763672,2548.061768 2269.084229,2463.507568 2268.217773,2378.941895 
	C2267.357666,2294.979004 2268.913330,2210.971191 2266.771240,2127.050293 
	C2265.514160,2077.794434 2265.079346,2028.556641 2264.402100,1979.306885 
	C2264.147705,1960.812500 2268.760742,1943.824585 2277.897949,1927.856201 
	C2294.578125,1898.705933 2333.360352,1881.429810 2369.319580,1890.246460 
	C2407.989258,1899.727661 2434.117188,1931.178467 2435.269531,1976.915527 
	C2436.091553,2009.552490 2435.695312,2042.220947 2435.795410,2074.875488 
	C2436.113525,2178.836914 2434.487305,2282.850586 2437.312500,2386.743408 
	C2439.649414,2472.667725 2438.974609,2558.553223 2439.793945,2644.451660 
	C2440.613525,2730.414307 2438.453857,2816.452393 2441.289551,2902.335693 
	C2444.082764,2986.931641 2442.919678,3071.483643 2443.784180,3156.049072 
	C2444.642090,3240.011963 2443.490234,3324.004639 2445.182373,3407.944824 
	C2445.879150,3442.516113 2447.491455,3477.099854 2447.282471,3511.700439 
	C2447.230957,3520.257324 2445.440430,3528.803467 2444.176270,3538.981934 
z"/>
<path fill="#A9D3C7" opacity="1.000000" stroke="none" 
	d="
M3087.284668,1895.200928 
	C3111.988525,1903.858643 3129.307129,1918.610596 3138.801270,1941.476196 
	C3144.948975,1956.281982 3148.039795,1971.300537 3145.227783,1987.965210 
	C3139.702637,2020.710693 3136.264648,2053.802734 3131.568848,2086.695312 
	C3126.969482,2118.915039 3121.733398,2151.043701 3117.054199,2183.252441 
	C3113.710693,2206.270508 3110.959717,2229.374023 3107.699463,2252.404785 
	C3104.440674,2275.424561 3100.831787,2298.394775 3097.462158,2321.399170 
	C3094.284180,2343.094971 3091.275635,2364.815918 3088.089355,2386.510498 
	C3083.070068,2420.689941 3077.807617,2454.834473 3072.940186,2489.035156 
	C3068.352539,2521.270996 3064.310547,2553.584717 3059.719238,2585.819824 
	C3055.128906,2618.045166 3050.093018,2650.206543 3045.371582,2682.413330 
	C3042.190430,2704.110596 3039.252686,2725.843262 3036.139404,2747.550293 
	C3032.555908,2772.537109 3028.863037,2797.508057 3025.284180,2822.495605 
	C3022.174561,2844.203613 3019.204346,2865.931396 3016.088623,2887.638672 
	C3012.502441,2912.624023 3008.778076,2937.589355 3005.198242,2962.575439 
	C3002.088135,2984.282959 2999.149414,3006.015625 2996.037109,3027.722900 
	C2992.454590,3052.709961 2988.714844,3077.674561 2985.134766,3102.662109 
	C2982.024414,3124.369873 2979.151123,3146.111572 2975.977783,3167.810059 
	C2971.074707,3201.333496 2965.844482,3234.809570 2961.052734,3268.348633 
	C2956.447266,3300.582275 2952.344727,3332.887207 2947.789795,3365.128418 
	C2944.537598,3388.149170 2940.787842,3411.098877 2937.471680,3434.110840 
	C2934.154541,3457.129639 2930.983154,3480.170898 2927.970459,3503.231689 
	C2925.889893,3519.154785 2922.926025,3534.812256 2915.182617,3549.093262 
	C2898.590820,3579.695068 2855.546387,3601.732178 2813.278809,3586.519775 
	C2774.416992,3572.533203 2751.199707,3532.032715 2758.222656,3491.120850 
	C2762.155518,3468.208984 2764.841797,3445.083984 2768.134521,3422.061523 
	C2772.555420,3391.147949 2776.974609,3360.233887 2781.479980,3329.332764 
	C2784.834473,3306.324707 2788.364990,3283.342529 2791.744629,3260.337891 
	C2795.413818,3235.362305 2799.033447,3210.379150 2802.610596,3185.390137 
	C2805.717773,3163.682861 2808.691162,3141.956299 2811.805176,3120.250000 
	C2815.389893,3095.262695 2819.105469,3070.294189 2822.686035,3045.306152 
	C2825.796387,3023.598145 2828.745361,3001.866943 2831.860352,2980.159668 
	C2835.445801,2955.172607 2839.184570,2930.207764 2842.764893,2905.219971 
	C2845.875244,2883.512207 2848.796143,2861.777100 2851.912109,2840.070068 
	C2855.499023,2815.083740 2859.284912,2790.125732 2862.841553,2765.135010 
	C2866.024414,2742.767578 2868.939697,2720.361816 2872.108398,2697.992432 
	C2875.463135,2674.313232 2879.002197,2650.660400 2882.415039,2626.989258 
	C2885.638916,2604.628418 2888.795166,2582.257812 2891.996094,2559.893799 
	C2895.196777,2537.530029 2898.381836,2515.164307 2901.635010,2492.808105 
	C2904.983154,2469.798584 2908.410400,2446.800537 2911.793213,2423.795898 
	C2915.465576,2398.821777 2919.191895,2373.855469 2922.772705,2348.868164 
	C2925.883545,2327.160156 2928.740967,2305.415771 2931.858154,2283.708740 
	C2936.768799,2249.515625 2941.869873,2215.349609 2946.761475,2181.153809 
	C2949.960938,2158.787598 2952.857910,2136.377930 2956.026123,2114.007080 
	C2959.379639,2090.327393 2962.955811,2066.679443 2966.320801,2043.001587 
	C2969.686523,2019.318848 2973.083496,1995.638428 2976.140137,1971.914917 
	C2978.395264,1954.411987 2983.542236,1937.972656 2994.536621,1924.079224 
	C3011.163574,1903.067627 3032.818848,1891.245361 3060.111816,1891.818848 
	C3068.665283,1891.998291 3077.186523,1893.722778 3087.284668,1895.200928 
z"/>
<path fill="#A9D3C7" opacity="1.000000" stroke="none" 
	d="
M1640.302734,2539.470703 
	C1633.897583,2499.039307 1627.596436,2460.357910 1621.413086,2421.657959 
	C1616.906006,2393.448486 1612.641235,2365.200195 1608.112549,2336.994385 
	C1601.899902,2298.300537 1595.461182,2259.643311 1589.268188,2220.946533 
	C1584.753662,2192.737305 1580.571411,2164.475342 1576.075928,2136.263184 
	C1570.013184,2098.216064 1563.755371,2060.200195 1557.661987,2022.157959 
	C1555.875977,2011.007690 1553.048706,1999.817871 1553.012573,1988.638550 
	C1552.946411,1968.160767 1559.535767,1949.456787 1572.595093,1933.321655 
	C1606.141602,1891.873779 1675.763916,1890.188599 1709.868286,1941.255981 
	C1718.569458,1954.284668 1721.245117,1969.570679 1723.739990,1984.679565 
	C1731.639526,2032.519897 1739.387817,2080.385986 1747.006714,2128.271973 
	C1752.852539,2165.012939 1758.295532,2201.818359 1764.140381,2238.559326 
	C1768.836060,2268.076904 1773.977173,2297.522949 1778.715088,2327.033691 
	C1783.243530,2355.239258 1787.414185,2383.502197 1791.908936,2411.713379 
	C1797.970703,2449.761230 1804.226807,2487.778076 1810.333862,2525.818848 
	C1814.861816,2554.022705 1819.245605,2582.249756 1823.765747,2610.455078 
	C1828.705688,2641.280273 1833.775757,2672.084229 1838.700928,2702.911621 
	C1843.102905,2730.465088 1847.315674,2758.048828 1851.736328,2785.599121 
	C1858.050415,2824.949463 1864.559082,2864.268311 1870.829956,2903.625488 
	C1875.325195,2931.837646 1879.464844,2960.106445 1883.949463,2988.320312 
	C1888.745972,3018.495361 1893.818726,3048.626221 1898.664185,3078.793701 
	C1903.088867,3106.342041 1907.307861,3133.922852 1911.730469,3161.471436 
	C1918.047607,3200.820801 1924.547607,3240.140869 1930.816772,3279.497803 
	C1935.310669,3307.709717 1939.441040,3335.979492 1943.937988,3364.191162 
	C1950.002563,3402.236572 1956.289551,3440.246582 1962.422974,3478.281006 
	C1964.115112,3488.774658 1966.495728,3499.261230 1966.975830,3509.822998 
	C1967.746826,3526.785400 1963.652710,3543.303711 1954.598022,3557.457275 
	C1938.662476,3582.366943 1915.709595,3597.337891 1885.591064,3599.420166 
	C1872.056519,3600.355713 1858.893188,3597.224365 1846.927734,3591.220947 
	C1817.381226,3576.396729 1801.015747,3552.199951 1796.297852,3519.312256 
	C1790.356445,3477.895996 1783.270630,3436.644287 1776.786987,3395.304688 
	C1769.684204,3350.018066 1762.864868,3304.686523 1755.621704,3259.422852 
	C1749.639282,3222.038330 1743.001709,3184.758545 1737.054321,3147.368652 
	C1731.001465,3109.316162 1725.634033,3071.155029 1719.603149,3033.098877 
	C1713.677612,2995.706299 1707.187012,2958.403320 1701.149170,2921.028076 
	C1696.593140,2892.824951 1692.457031,2864.554199 1687.959351,2836.341553 
	C1681.894165,2798.295410 1675.600098,2760.286133 1669.520752,2722.242432 
	C1664.908203,2693.377686 1660.573853,2664.468506 1655.939575,2635.607422 
	C1650.884644,2604.125732 1645.626709,2572.676270 1640.302734,2539.470703 
z"/>
<path fill="#FCFDFD" opacity="1.000000" stroke="none" 
	d="
M2022.456909,1183.927002 
	C2021.067017,1166.149048 2019.722046,1148.273315 2021.187378,1129.232178 
	C2028.042114,1128.746704 2033.818359,1128.020752 2039.599487,1127.977417 
	C2096.187012,1127.552856 2152.776123,1127.322388 2209.363281,1126.882812 
	C2346.498291,1125.817993 2483.632568,1124.666870 2620.767090,1123.566895 
	C2629.996094,1123.492920 2639.226318,1123.557129 2648.996826,1123.557129 
	C2653.267090,1141.872559 2650.372314,1159.173828 2651.720703,1178.068481 
	C2574.508301,1180.060547 2497.101807,1177.899536 2419.915039,1181.073608 
	C2358.638184,1183.593384 2297.446533,1182.777588 2236.224121,1183.558105 
	C2174.915283,1184.339844 2113.591064,1183.955811 2052.273682,1184.057007 
	C2042.943848,1184.072388 2033.613770,1183.947632 2022.456909,1183.927002 
z"/>
</svg>