<svg version="1.1" id="Layer_1" xmlns="http://www.w3.org/2000/svg" xmlns:xlink="http://www.w3.org/1999/xlink" x="0px" y="0px"
	 width="100%" viewBox="0 0 228 228" enable-background="new 0 0 228 228" xml:space="preserve">
<path fill="#000000" opacity="1.000000" stroke="none" 
	d="
M125.000000,229.000000 
	C83.333336,229.000000 42.166672,229.000000 1.000005,229.000000 
	C1.000004,153.000000 1.000004,77.000015 1.000002,1.000016 
	C76.999992,1.000010 152.999985,1.000010 228.999969,1.000005 
	C228.999985,76.999985 228.999985,152.999969 229.000000,228.999969 
	C194.500000,229.000000 160.000000,229.000000 125.000000,229.000000 
M127.701736,19.854914 
	C114.032036,17.786818 100.436256,18.367788 87.468452,23.130560 
	C47.148682,37.939064 24.345413,76.822250 32.369846,118.659279 
	C38.189480,149.001114 56.270561,170.321671 85.264099,181.418503 
	C115.605202,193.031067 144.151611,187.883942 168.711975,167.472244 
	C210.310532,132.900406 209.383286,71.043457 167.634750,37.295151 
	C156.247787,28.090265 143.432083,21.614407 127.701736,19.854914 
z"/>
<path fill="#311B92" opacity="1.000000" stroke="none" 
	d="
M128.144165,19.906614 
	C143.432083,21.614407 156.247787,28.090265 167.634750,37.295151 
	C209.383286,71.043457 210.310532,132.900406 168.711975,167.472244 
	C144.151611,187.883942 115.605202,193.031067 85.264099,181.418503 
	C56.270561,170.321671 38.189480,149.001114 32.369846,118.659279 
	C24.345413,76.822250 47.148682,37.939064 87.468452,23.130560 
	C100.436256,18.367788 114.032036,17.786818 128.144165,19.906614 
M106.820251,132.728836 
	C109.227180,134.367981 111.765488,137.468704 114.636993,134.926788 
	C116.327469,133.430359 116.817284,130.171692 117.124306,127.618690 
	C117.528885,124.254326 117.223747,120.804604 117.223747,117.170074 
	C126.716278,117.170074 135.368393,117.100067 144.018494,117.201134 
	C148.031967,117.248024 149.853027,115.353828 149.870132,111.488670 
	C149.890762,106.825813 149.890717,102.162758 149.875732,97.499863 
	C149.853027,90.435280 148.909485,89.510124 141.759995,89.495506 
	C137.929733,89.487671 134.099426,89.494064 130.269150,89.494049 
	C126.031502,89.494041 121.793854,89.494049 117.223289,89.494049 
	C117.223289,85.150749 117.517555,81.643723 117.119255,78.217194 
	C116.856194,75.954132 116.175034,72.788612 114.616592,71.905388 
	C113.173836,71.087723 109.891472,72.181404 108.149765,73.442421 
	C96.829597,81.638382 85.693695,90.089676 74.529770,98.500259 
	C69.651520,102.175385 69.700150,104.876167 74.691963,108.631485 
	C85.197113,116.534424 95.734818,124.394081 106.820251,132.728836 
z"/>
<path fill="#FEFEFE" opacity="1.000000" stroke="none" 
	d="
M106.539711,132.500168 
	C95.734818,124.394081 85.197113,116.534424 74.691963,108.631485 
	C69.700150,104.876167 69.651520,102.175385 74.529770,98.500259 
	C85.693695,90.089676 96.829597,81.638382 108.149765,73.442421 
	C109.891472,72.181404 113.173836,71.087723 114.616592,71.905388 
	C116.175034,72.788612 116.856194,75.954132 117.119255,78.217194 
	C117.517555,81.643723 117.223289,85.150749 117.223289,89.494049 
	C121.793854,89.494049 126.031502,89.494041 130.269150,89.494049 
	C134.099426,89.494064 137.929733,89.487671 141.759995,89.495506 
	C148.909485,89.510124 149.853027,90.435280 149.875732,97.499863 
	C149.890717,102.162758 149.890762,106.825813 149.870132,111.488670 
	C149.853027,115.353828 148.031967,117.248024 144.018494,117.201134 
	C135.368393,117.100067 126.716278,117.170074 117.223747,117.170074 
	C117.223747,120.804604 117.528885,124.254326 117.124306,127.618690 
	C116.817284,130.171692 116.327469,133.430359 114.636993,134.926788 
	C111.765488,137.468704 109.227180,134.367981 106.539711,132.500168 
z"/>
</svg>