<svg id="button_48x48_-_fill" data-name="button 48x48 - fill" xmlns="http://www.w3.org/2000/svg" xmlns:xlink="http://www.w3.org/1999/xlink" width="52" height="52" viewBox="0 0 52 52">
  <defs>
    <clipPath id="clip-path">
      <rect id="Rectangle_1782" data-name="Rectangle 1782" width="52" height="52" transform="translate(29 39)" fill="#fff" stroke="#707070" stroke-width="1"/>
    </clipPath>
    <linearGradient id="linear-gradient" x1="-0.446" y1="0.188" x2="1.095" y2="0.822" gradientUnits="objectBoundingBox">
      <stop offset="0" stop-color="#ffbc45"/>
      <stop offset="1" stop-color="#f87b62"/>
    </linearGradient>
  </defs>
  <g id="button_48x48_-_fill-2" data-name="button 48x48 - fill" transform="translate(-29 -39)" clip-path="url(#clip-path)">
    <circle id="Ellipse_16" data-name="Ellipse 16" cx="19" cy="19" r="19" transform="translate(36 45)" fill="#f87b62" opacity="0.4"/>
    <circle id="Ellipse_17" data-name="Ellipse 17" cx="20" cy="20" r="20" transform="translate(35 39)" fill="url(#linear-gradient)"/>
    <g id="Group_3133" data-name="Group 3133" transform="translate(-212.211 -1955.996)">
      <g id="Group_2999" data-name="Group 2999" transform="translate(259.779 2008.34)">
        <path id="Path_6832" data-name="Path 6832" d="M273.674,2013.642a1.043,1.043,0,0,0-.183-.014H263.361l.526-.529,2.925-2.925a1.1,1.1,0,0,0,.153-1.4,1.057,1.057,0,0,0-1.587-.137l-5.289,5.289a1.058,1.058,0,0,0,0,1.5h0l5.289,5.289a1.058,1.058,0,0,0,1.587-.106,1.1,1.1,0,0,0-.153-1.4l-2.919-2.93c-.155-.155-.524-.529-.524-.529h10.065a1.1,1.1,0,0,0,1.116-.889A1.058,1.058,0,0,0,273.674,2013.642Z" transform="translate(-259.779 -2008.34)" fill="#fcfcfc"/>
      </g>
    </g>
  </g>
</svg>
