<svg version="1.1" id="Layer_1" xmlns="http://www.w3.org/2000/svg" xmlns:xlink="http://www.w3.org/1999/xlink" x="0px" y="0px"
	 width="100%" viewBox="0 0 512 512" enable-background="new 0 0 512 512" xml:space="preserve">
<path fill="#000000" opacity="1.000000" stroke="none" 
	d="
M270.468658,513.000000 
	C274.782318,510.411682 280.126892,511.585602 285.173737,510.932587 
	C367.454590,500.286560 430.798737,459.785217 475.070343,389.895538 
	C495.205780,358.108551 506.852478,323.043182 510.913086,285.511688 
	C511.373901,281.252136 511.036621,276.833252 512.789246,272.348999 
	C513.000000,352.260681 513.000000,432.521362 513.000000,513.000000 
	C432.312561,513.000000 351.624939,513.000000 270.468658,513.000000 
z"/>
<path fill="#000000" opacity="1.000000" stroke="none" 
	d="
M1.000000,270.468658 
	C3.595077,274.950958 2.386934,280.457245 3.127556,285.673828 
	C17.328724,385.699860 71.271706,455.169250 163.869095,494.730438 
	C187.740662,504.929291 212.999039,510.099182 238.937180,511.750824 
	C240.071411,511.823029 241.180969,512.282471 242.651001,512.780762 
	C162.406143,513.000000 81.812279,513.000000 1.000000,513.000000 
	C1.000000,432.312561 1.000000,351.624939 1.000000,270.468658 
z"/>
<path fill="#000000" opacity="1.000000" stroke="none" 
	d="
M241.531342,1.000000 
	C235.335892,3.301861 228.278748,3.087458 221.418457,4.042436 
	C185.238876,9.078769 151.680725,21.280109 120.997231,40.956882 
	C63.650368,77.732384 26.252247,129.184113 9.150547,195.197952 
	C5.480284,209.365448 3.041282,223.783707 2.267592,238.443298 
	C2.198857,239.745651 1.748133,241.027847 1.237411,242.659698 
	C1.000000,162.406448 1.000000,81.812889 1.000000,1.000000 
	C81.020760,1.000000 161.041718,1.000000 241.531342,1.000000 
z"/>
<path fill="#000000" opacity="1.000000" stroke="none" 
	d="
M513.000000,240.531342 
	C510.566864,234.529037 510.899536,227.614059 509.935577,220.921036 
	C503.630463,177.142960 487.343109,137.522873 460.380096,102.512581 
	C424.870636,56.405083 379.009216,25.409962 322.714691,10.208530 
	C307.126221,5.999113 291.281342,3.031267 275.091736,2.245597 
	C273.622833,2.174313 272.173340,1.702294 270.357422,1.208185 
	C350.926605,1.000000 431.853180,1.000000 513.000000,1.000000 
	C513.000000,80.687424 513.000000,160.375061 513.000000,240.531342 
z"/>
<path fill="#000000" opacity="1.000000" stroke="none" 
	d="
M64.488663,129.537918 
	C97.473152,80.993057 141.760910,48.336563 198.263153,33.811634 
	C267.109283,16.113485 331.506744,27.714333 389.860077,68.393066 
	C436.320404,100.781059 467.040405,145.040314 480.574188,200.025848 
	C498.946869,274.670929 483.785065,342.891693 435.701172,402.798492 
	C399.230988,448.236023 351.330292,476.146362 293.695129,484.914856 
	C219.556808,496.194153 154.124130,476.112152 99.024750,424.911713 
	C58.596451,387.344208 34.916733,340.593475 27.954126,285.941864 
	C20.779476,229.625717 33.418606,177.508148 64.488663,129.537918 
M338.810089,229.315598 
	C364.148560,197.375366 353.963104,148.034775 317.667480,127.353470 
	C304.148987,119.650612 289.701416,115.263161 274.392548,112.915932 
	C246.831970,108.690201 220.887695,112.780952 197.178482,127.698692 
	C179.051987,139.103806 165.880997,154.446075 161.777008,176.295990 
	C159.035339,190.892899 164.997299,202.401306 177.579529,206.224670 
	C190.922745,210.279266 203.018784,205.624588 209.987213,193.432129 
	C213.454941,187.364731 216.431198,181.017197 219.654510,174.809204 
	C225.509888,163.531937 235.143799,157.637711 247.413925,155.951859 
	C251.834671,155.344467 256.439148,155.333664 260.884613,155.787125 
	C273.806213,157.105209 285.067535,161.746704 290.521790,174.557831 
	C295.935577,187.273911 294.655487,199.577850 286.162415,210.839966 
	C280.373016,218.516861 272.858154,224.323807 265.436310,230.254059 
	C255.814148,237.942383 245.797852,245.182037 237.615707,254.528244 
	C228.647873,264.771881 223.990952,276.457703 225.267914,290.264221 
	C226.214493,300.498901 233.805252,309.999664 243.626694,311.365601 
	C256.454193,313.149597 266.032104,311.703064 272.102081,299.530731 
	C274.030273,295.664062 275.626007,291.621979 277.211700,287.596313 
	C279.908752,280.749146 284.148254,275.102966 290.001221,270.670837 
	C293.984833,267.654236 297.997437,264.675323 302.022644,261.714325 
	C315.044678,252.135086 328.299011,242.823822 338.810089,229.315598 
M228.210678,348.713715 
	C219.669815,358.335876 217.014465,369.241760 221.289673,381.524536 
	C226.733124,397.163727 243.745361,405.776276 259.955750,401.222137 
	C275.405884,396.881592 285.695526,380.406158 282.354523,364.800415 
	C279.748260,352.626404 272.497620,344.076752 260.461426,340.521027 
	C248.603836,337.018127 237.800583,339.508575 228.210678,348.713715 
z"/>
</svg>