<svg version="1.1" id="Layer_1" xmlns="http://www.w3.org/2000/svg" xmlns:xlink="http://www.w3.org/1999/xlink" x="0px" y="0px"
	 width="100%" viewBox="0 0 512 512" enable-background="new 0 0 512 512" xml:space="preserve">
<path fill="#25B7D3" opacity="1.000000" stroke="none" 
	d="
M235.000000,1.000000 
	C249.354233,1.000000 263.708466,1.000000 278.741638,1.370530 
	C287.370239,2.808974 295.332031,3.793830 303.267151,4.960453 
	C326.567566,8.386102 348.545837,16.110195 369.605042,26.350405 
	C389.555176,36.051331 407.941956,48.196350 424.622742,62.978947 
	C440.372864,76.936844 454.635773,92.128929 466.842010,109.287811 
	C479.617096,127.246346 489.853485,146.573273 497.490723,167.176437 
	C504.134521,185.099655 509.007202,203.555756 511.041809,222.664474 
	C511.482025,226.798950 512.336365,230.889313 513.000000,235.000000 
	C513.000000,249.354233 513.000000,263.708466 512.629456,278.741638 
	C511.191040,287.370087 510.206116,295.331757 509.039642,303.266754 
	C505.614380,326.567352 497.889801,348.545502 487.649750,369.604767 
	C477.948914,389.554993 465.803833,407.941833 451.021210,424.622589 
	C437.063293,440.372711 421.871216,454.635681 404.712280,466.841919 
	C386.753693,479.617035 367.426758,489.853546 346.823578,497.490784 
	C328.900360,504.134613 310.444214,509.007233 291.335510,511.041809 
	C287.201050,511.482025 283.110687,512.336365 279.000000,513.000000 
	C264.645782,513.000000 250.291550,513.000000 235.258362,512.629517 
	C226.629776,511.191040 218.667969,510.206177 210.732864,509.039551 
	C187.432404,505.613831 165.454117,497.889832 144.394913,487.649597 
	C124.444786,477.948639 106.058037,465.803650 89.377274,451.021057 
	C73.627167,437.063141 59.364262,421.871063 47.158005,404.712189 
	C34.382912,386.753662 24.146450,367.426727 16.509241,346.823547 
	C9.865456,328.900330 4.992778,310.444214 2.958244,291.335510 
	C2.518038,287.201019 1.663625,283.110687 1.000000,279.000000 
	C1.000000,264.645782 1.000000,250.291550 1.370525,235.258362 
	C2.808960,226.629852 3.793900,218.668137 4.960418,210.733093 
	C8.385794,187.432526 16.110233,165.454346 26.350344,144.395111 
	C36.051189,124.444908 48.196247,106.058121 62.978867,89.377350 
	C76.936760,73.627220 92.128853,59.364326 109.287758,47.158062 
	C127.246307,34.382954 146.573227,24.146463 167.176437,16.509254 
	C185.099655,9.865463 203.555771,4.992783 222.664490,2.958242 
	C226.798950,2.518038 230.889328,1.663625 235.000000,1.000000 
M253.085556,214.571274 
	C262.562042,209.054779 272.038513,203.538269 281.617493,197.962082 
	C282.795258,198.955917 283.796326,199.812698 284.810059,200.654266 
	C302.898071,215.670639 323.112946,219.332993 344.478149,209.595215 
	C366.212738,199.689102 377.191101,181.844528 377.000610,157.844559 
	C376.745789,125.750763 349.107910,101.543732 316.041565,103.999390 
	C285.606415,106.259636 262.345123,135.707260 266.844116,166.549927 
	C267.419861,170.496780 266.343445,172.422531 262.903046,174.391174 
	C239.925247,187.539276 217.099197,200.952515 194.216660,214.267288 
	C192.679260,215.161880 191.082870,215.955048 189.570908,216.764847 
	C175.337509,204.720535 159.309036,200.038208 141.355118,203.558655 
	C117.937149,208.150528 100.618347,226.691727 97.196693,250.099030 
	C93.875374,272.819977 105.427750,295.766449 125.721977,306.758759 
	C146.159927,317.828918 171.215729,314.956268 189.026855,299.249084 
	C191.528748,297.042725 193.171921,297.139496 195.871231,298.727997 
	C218.831528,312.239410 241.886917,325.589233 264.906372,339.000214 
	C265.889954,339.573242 266.800659,340.271301 267.792450,340.943024 
	C267.642670,341.750763 267.524170,342.393433 267.404297,343.035828 
	C260.135193,381.985687 292.155396,416.041199 330.055176,409.668884 
	C353.547516,405.719025 371.928864,388.089600 376.073364,365.533325 
	C380.429504,341.825165 370.232391,319.090546 349.819000,306.998749 
	C329.492096,294.958282 304.531158,296.997650 285.960175,312.451691 
	C283.595764,314.419281 282.029480,314.461365 279.499542,312.975128 
	C256.386078,299.396454 233.230621,285.887970 209.988022,272.531952 
	C207.162170,270.908112 206.810318,269.143158 206.895935,266.158752 
	C207.085587,259.547974 207.018738,252.870483 206.243103,246.316467 
	C205.857178,243.055359 206.564224,241.544220 209.248230,240.007965 
	C223.698730,231.736893 238.059799,223.309570 253.085556,214.571274 
z"/>
<path fill="#FFFFFF" opacity="1.000000" stroke="none" 
	d="
M234.531342,1.000000 
	C230.889328,1.663625 226.798950,2.518038 222.664490,2.958242 
	C203.555771,4.992783 185.099655,9.865463 167.176437,16.509254 
	C146.573227,24.146463 127.246307,34.382954 109.287758,47.158062 
	C92.128853,59.364326 76.936760,73.627220 62.978867,89.377350 
	C48.196247,106.058121 36.051189,124.444908 26.350344,144.395111 
	C16.110233,165.454346 8.385794,187.432526 4.960418,210.733093 
	C3.793900,218.668137 2.808960,226.629852 1.370525,234.789703 
	C1.000000,157.072952 1.000000,79.145912 1.000000,1.000000 
	C78.687424,1.000000 156.375061,1.000000 234.531342,1.000000 
z"/>
<path fill="#FFFFFF" opacity="1.000000" stroke="none" 
	d="
M513.000000,234.531342 
	C512.336365,230.889313 511.482025,226.798950 511.041809,222.664474 
	C509.007202,203.555756 504.134521,185.099655 497.490723,167.176437 
	C489.853485,146.573273 479.617096,127.246346 466.842010,109.287811 
	C454.635773,92.128929 440.372864,76.936844 424.622742,62.978947 
	C407.941956,48.196350 389.555176,36.051331 369.605042,26.350405 
	C348.545837,16.110195 326.567566,8.386102 303.267151,4.960453 
	C295.332031,3.793830 287.370239,2.808974 279.210327,1.370530 
	C356.927032,1.000000 434.854095,1.000000 513.000000,1.000000 
	C513.000000,78.687424 513.000000,156.375061 513.000000,234.531342 
z"/>
<path fill="#FFFFFF" opacity="1.000000" stroke="none" 
	d="
M1.000000,279.468658 
	C1.663625,283.110687 2.518038,287.201019 2.958244,291.335510 
	C4.992778,310.444214 9.865456,328.900330 16.509241,346.823547 
	C24.146450,367.426727 34.382912,386.753662 47.158005,404.712189 
	C59.364262,421.871063 73.627167,437.063141 89.377274,451.021057 
	C106.058037,465.803650 124.444786,477.948639 144.394913,487.649597 
	C165.454117,497.889832 187.432404,505.613831 210.732864,509.039551 
	C218.667969,510.206177 226.629776,511.191040 234.789703,512.629517 
	C157.072968,513.000000 79.145927,513.000000 1.000000,513.000000 
	C1.000000,435.312561 1.000000,357.624939 1.000000,279.468658 
z"/>
<path fill="#FFFFFF" opacity="1.000000" stroke="none" 
	d="
M279.468658,513.000000 
	C283.110687,512.336365 287.201050,511.482025 291.335510,511.041809 
	C310.444214,509.007233 328.900360,504.134613 346.823578,497.490784 
	C367.426758,489.853546 386.753693,479.617035 404.712280,466.841919 
	C421.871216,454.635681 437.063293,440.372711 451.021210,424.622589 
	C465.803833,407.941833 477.948914,389.554993 487.649750,369.604767 
	C497.889801,348.545502 505.614380,326.567352 509.039642,303.266754 
	C510.206116,295.331757 511.191040,287.370087 512.629456,279.210297 
	C513.000000,356.927032 513.000000,434.854095 513.000000,513.000000 
	C435.312561,513.000000 357.624939,513.000000 279.468658,513.000000 
z"/>
<path fill="#FEFFFF" opacity="1.000000" stroke="none" 
	d="
M252.768646,214.753723 
	C238.059799,223.309570 223.698730,231.736893 209.248230,240.007965 
	C206.564224,241.544220 205.857178,243.055359 206.243103,246.316467 
	C207.018738,252.870483 207.085587,259.547974 206.895935,266.158752 
	C206.810318,269.143158 207.162170,270.908112 209.988022,272.531952 
	C233.230621,285.887970 256.386078,299.396454 279.499542,312.975128 
	C282.029480,314.461365 283.595764,314.419281 285.960175,312.451691 
	C304.531158,296.997650 329.492096,294.958282 349.819000,306.998749 
	C370.232391,319.090546 380.429504,341.825165 376.073364,365.533325 
	C371.928864,388.089600 353.547516,405.719025 330.055176,409.668884 
	C292.155396,416.041199 260.135193,381.985687 267.404297,343.035828 
	C267.524170,342.393433 267.642670,341.750763 267.792450,340.943024 
	C266.800659,340.271301 265.889954,339.573242 264.906372,339.000214 
	C241.886917,325.589233 218.831528,312.239410 195.871231,298.727997 
	C193.171921,297.139496 191.528748,297.042725 189.026855,299.249084 
	C171.215729,314.956268 146.159927,317.828918 125.721977,306.758759 
	C105.427750,295.766449 93.875374,272.819977 97.196693,250.099030 
	C100.618347,226.691727 117.937149,208.150528 141.355118,203.558655 
	C159.309036,200.038208 175.337509,204.720535 189.570908,216.764847 
	C191.082870,215.955048 192.679260,215.161880 194.216660,214.267288 
	C217.099197,200.952515 239.925247,187.539276 262.903046,174.391174 
	C266.343445,172.422531 267.419861,170.496780 266.844116,166.549927 
	C262.345123,135.707260 285.606415,106.259636 316.041565,103.999390 
	C349.107910,101.543732 376.745789,125.750763 377.000610,157.844559 
	C377.191101,181.844528 366.212738,199.689102 344.478149,209.595215 
	C323.112946,219.332993 302.898071,215.670639 284.810059,200.654266 
	C283.796326,199.812698 282.795258,198.955917 281.617493,197.962082 
	C272.038513,203.538269 262.562042,209.054779 252.768646,214.753723 
z"/>
</svg>